<mxfile host="65bd71144e">
    <diagram id="muzvX6rnpbMXrXVNm6vK" name="Página-1">
        <mxGraphModel dx="395" dy="365" grid="1" gridSize="10" guides="1" tooltips="1" connect="1" arrows="1" fold="1" page="1" pageScale="1" pageWidth="827" pageHeight="1169" background="none" math="0" shadow="1">
            <root>
                <mxCell id="0"/>
                <mxCell id="1" parent="0"/>
                <mxCell id="2" value="CANAL" style="rounded=0;whiteSpace=wrap;html=1;fontSize=14;" vertex="1" parent="1">
                    <mxGeometry x="30" y="250" width="120" height="60" as="geometry"/>
                </mxCell>
                <mxCell id="5" value="PACOTE" style="rounded=0;whiteSpace=wrap;html=1;fontSize=14;" vertex="1" parent="1">
                    <mxGeometry x="470" y="250" width="120" height="60" as="geometry"/>
                </mxCell>
                <mxCell id="7" value="(1,N)" style="edgeStyle=none;html=1;entryX=1;entryY=0.5;entryDx=0;entryDy=0;endArrow=none;endFill=0;fontSize=14;" edge="1" parent="1" source="6" target="2">
                    <mxGeometry relative="1" as="geometry"/>
                </mxCell>
                <mxCell id="8" value="(1,1)" style="edgeStyle=none;html=1;entryX=0;entryY=0.5;entryDx=0;entryDy=0;endArrow=none;endFill=0;fontSize=14;" edge="1" parent="1" source="6" target="5">
                    <mxGeometry x="0.4286" y="20" relative="1" as="geometry">
                        <mxPoint as="offset"/>
                    </mxGeometry>
                </mxCell>
                <mxCell id="6" value="POSSUI" style="rhombus;whiteSpace=wrap;html=1;fontSize=14;" vertex="1" parent="1">
                    <mxGeometry x="230" y="250" width="170" height="60" as="geometry"/>
                </mxCell>
                <mxCell id="37" style="edgeStyle=none;rounded=0;html=1;entryX=0.117;entryY=-0.009;entryDx=0;entryDy=0;entryPerimeter=0;fontSize=14;fontColor=#FFFFFF;endArrow=none;endFill=0;" edge="1" parent="1" source="9" target="5">
                    <mxGeometry relative="1" as="geometry">
                        <Array as="points">
                            <mxPoint x="484" y="160"/>
                        </Array>
                    </mxGeometry>
                </mxCell>
                <mxCell id="9" value="&lt;span style=&quot;white-space: pre&quot;&gt;&#9;&lt;/span&gt;NOME" style="ellipse;whiteSpace=wrap;html=1;aspect=fixed;fontSize=14;align=left;" vertex="1" parent="1">
                    <mxGeometry x="540" y="150" width="20" height="20" as="geometry"/>
                </mxCell>
                <mxCell id="13" style="edgeStyle=orthogonalEdgeStyle;rounded=0;html=1;entryX=0.324;entryY=0.003;entryDx=0;entryDy=0;entryPerimeter=0;fontSize=14;endArrow=none;endFill=0;" edge="1" parent="1" source="10" target="5">
                    <mxGeometry relative="1" as="geometry">
                        <Array as="points">
                            <mxPoint x="513" y="190"/>
                            <mxPoint x="513" y="250"/>
                        </Array>
                    </mxGeometry>
                </mxCell>
                <mxCell id="10" value="&lt;span style=&quot;white-space: pre&quot;&gt;&#9;&lt;/span&gt;PRECO" style="ellipse;whiteSpace=wrap;html=1;aspect=fixed;fontSize=14;align=left;fillColor=#f5f5f5;fontColor=#FFFFFF;strokeColor=#666666;" vertex="1" parent="1">
                    <mxGeometry x="540" y="180" width="20" height="20" as="geometry"/>
                </mxCell>
                <mxCell id="39" value="(0,N)" style="edgeStyle=none;rounded=0;html=1;entryX=0;entryY=0.5;entryDx=0;entryDy=0;fontSize=14;fontColor=#FFFFFF;endArrow=none;endFill=0;" edge="1" parent="1" source="15" target="36">
                    <mxGeometry x="-0.3333" y="20" relative="1" as="geometry">
                        <mxPoint as="offset"/>
                    </mxGeometry>
                </mxCell>
                <mxCell id="15" value="CLIENTE" style="rounded=0;whiteSpace=wrap;html=1;fontSize=14;fontColor=#FFFFFF;" vertex="1" parent="1">
                    <mxGeometry x="20" y="490" width="120" height="60" as="geometry"/>
                </mxCell>
                <mxCell id="24" style="edgeStyle=orthogonalEdgeStyle;rounded=0;html=1;entryX=0.716;entryY=1.02;entryDx=0;entryDy=0;entryPerimeter=0;fontSize=14;fontColor=#FFFFFF;endArrow=none;endFill=0;" edge="1" parent="1" source="17" target="15">
                    <mxGeometry relative="1" as="geometry"/>
                </mxCell>
                <mxCell id="17" value="&lt;span style=&quot;white-space: pre&quot;&gt;&#9;&lt;/span&gt;CPF" style="ellipse;whiteSpace=wrap;html=1;aspect=fixed;fontSize=14;align=left;" vertex="1" parent="1">
                    <mxGeometry x="94" y="570" width="20" height="20" as="geometry"/>
                </mxCell>
                <mxCell id="23" style="edgeStyle=orthogonalEdgeStyle;rounded=0;html=1;entryX=0.5;entryY=1;entryDx=0;entryDy=0;fontSize=14;fontColor=#FFFFFF;endArrow=none;endFill=0;" edge="1" parent="1" source="18" target="15">
                    <mxGeometry relative="1" as="geometry"/>
                </mxCell>
                <mxCell id="18" value="&lt;span style=&quot;white-space: pre&quot;&gt;&#9;&lt;/span&gt;NOME" style="ellipse;whiteSpace=wrap;html=1;aspect=fixed;fontSize=14;align=left;fillColor=#f5f5f5;fontColor=#FFFFFF;strokeColor=#666666;" vertex="1" parent="1">
                    <mxGeometry x="72" y="600" width="20" height="20" as="geometry"/>
                </mxCell>
                <mxCell id="22" style="edgeStyle=orthogonalEdgeStyle;rounded=0;html=1;fontSize=14;fontColor=#FFFFFF;endArrow=none;endFill=0;" edge="1" parent="1" source="19">
                    <mxGeometry relative="1" as="geometry">
                        <mxPoint x="57" y="550" as="targetPoint"/>
                    </mxGeometry>
                </mxCell>
                <mxCell id="19" value="&lt;span style=&quot;white-space: pre&quot;&gt;&#9;&lt;/span&gt;ENDEREÇO" style="ellipse;whiteSpace=wrap;html=1;aspect=fixed;fontSize=14;align=left;fillColor=#f5f5f5;fontColor=#FFFFFF;strokeColor=#666666;" vertex="1" parent="1">
                    <mxGeometry x="180" y="630" width="20" height="20" as="geometry"/>
                </mxCell>
                <mxCell id="21" style="edgeStyle=orthogonalEdgeStyle;rounded=0;html=1;entryX=0.136;entryY=1.02;entryDx=0;entryDy=0;entryPerimeter=0;fontSize=14;fontColor=#FFFFFF;endArrow=none;endFill=0;" edge="1" parent="1" source="20" target="15">
                    <mxGeometry relative="1" as="geometry"/>
                </mxCell>
                <mxCell id="20" value="&lt;span style=&quot;white-space: pre&quot;&gt;&#9;&lt;/span&gt;EMAIL_(0,N)" style="ellipse;whiteSpace=wrap;html=1;aspect=fixed;fontSize=14;align=left;fillColor=#f5f5f5;fontColor=#FFFFFF;strokeColor=#000000;dashed=1;strokeWidth=2;gradientColor=none;shadow=0;sketch=0;" vertex="1" parent="1">
                    <mxGeometry x="28" y="655" width="20" height="20" as="geometry"/>
                </mxCell>
                <mxCell id="53" style="edgeStyle=none;rounded=0;html=1;entryX=0.383;entryY=0.179;entryDx=0;entryDy=0;entryPerimeter=0;fontSize=14;fontColor=#FFFFFF;startArrow=none;startFill=0;endArrow=none;endFill=0;" edge="1" parent="1" source="27" target="36">
                    <mxGeometry relative="1" as="geometry"/>
                </mxCell>
                <mxCell id="27" value="&lt;span style=&quot;white-space: pre&quot;&gt;&#9;&lt;/span&gt;DATAASSINATURA" style="ellipse;whiteSpace=wrap;html=1;aspect=fixed;fontSize=14;align=left;fillColor=#f5f5f5;fontColor=#FFFFFF;strokeColor=#666666;" vertex="1" parent="1">
                    <mxGeometry x="285" y="430" width="20" height="20" as="geometry"/>
                </mxCell>
                <mxCell id="52" style="edgeStyle=none;rounded=0;html=1;fontSize=14;fontColor=#FFFFFF;startArrow=none;startFill=0;endArrow=none;endFill=0;" edge="1" parent="1" source="28" target="36">
                    <mxGeometry relative="1" as="geometry"/>
                </mxCell>
                <mxCell id="28" value="&lt;span style=&quot;white-space: pre&quot;&gt;&#9;&lt;/span&gt;DATADESATIVA" style="ellipse;whiteSpace=wrap;html=1;aspect=fixed;fontSize=14;align=left;fillColor=#f5f5f5;fontColor=#FFFFFF;strokeColor=#666666;" vertex="1" parent="1">
                    <mxGeometry x="309" y="450" width="20" height="20" as="geometry"/>
                </mxCell>
                <mxCell id="54" style="edgeStyle=none;rounded=0;html=1;entryX=0.242;entryY=0.336;entryDx=0;entryDy=0;entryPerimeter=0;fontSize=14;fontColor=#FFFFFF;startArrow=none;startFill=0;endArrow=none;endFill=0;" edge="1" parent="1" source="30" target="36">
                    <mxGeometry relative="1" as="geometry"/>
                </mxCell>
                <mxCell id="30" value="&lt;span style=&quot;white-space: pre&quot;&gt;&#9;&lt;/span&gt;ENDERECOINSTALACAO" style="ellipse;whiteSpace=wrap;html=1;aspect=fixed;fontSize=14;align=left;fillColor=#f5f5f5;fontColor=#FFFFFF;strokeColor=#666666;" vertex="1" parent="1">
                    <mxGeometry x="260" y="400" width="20" height="20" as="geometry"/>
                </mxCell>
                <mxCell id="33" style="edgeStyle=orthogonalEdgeStyle;rounded=0;html=1;fontSize=14;fontColor=#FFFFFF;endArrow=none;endFill=0;" edge="1" parent="1" source="31" target="2">
                    <mxGeometry relative="1" as="geometry">
                        <Array as="points">
                            <mxPoint x="50" y="330"/>
                            <mxPoint x="50" y="330"/>
                        </Array>
                    </mxGeometry>
                </mxCell>
                <mxCell id="31" value="&lt;span style=&quot;white-space: pre&quot;&gt;&#9;&lt;/span&gt;NOME" style="ellipse;whiteSpace=wrap;html=1;aspect=fixed;fontSize=14;align=left;fillColor=#f5f5f5;fontColor=#FFFFFF;strokeColor=#666666;" vertex="1" parent="1">
                    <mxGeometry x="40" y="330" width="20" height="20" as="geometry"/>
                </mxCell>
                <mxCell id="35" style="edgeStyle=orthogonalEdgeStyle;rounded=0;html=1;entryX=0.167;entryY=0.167;entryDx=0;entryDy=0;entryPerimeter=0;fontSize=14;fontColor=#FFFFFF;endArrow=none;endFill=0;" edge="1" parent="1" source="32" target="2">
                    <mxGeometry relative="1" as="geometry"/>
                </mxCell>
                <mxCell id="32" value="&lt;span style=&quot;white-space: pre&quot;&gt;&#9;&lt;/span&gt;NUMERO" style="ellipse;whiteSpace=wrap;html=1;aspect=fixed;fontSize=14;align=left;" vertex="1" parent="1">
                    <mxGeometry x="40" y="210" width="20" height="20" as="geometry"/>
                </mxCell>
                <mxCell id="40" value="(1,N)" style="edgeStyle=none;rounded=0;html=1;entryX=0.25;entryY=1;entryDx=0;entryDy=0;fontSize=14;fontColor=#FFFFFF;endArrow=none;endFill=0;" edge="1" parent="1" source="36" target="5">
                    <mxGeometry x="0.871" y="-20" relative="1" as="geometry">
                        <Array as="points">
                            <mxPoint x="500" y="520"/>
                        </Array>
                        <mxPoint y="1" as="offset"/>
                    </mxGeometry>
                </mxCell>
                <mxCell id="36" value="ASSINATURA" style="rhombus;whiteSpace=wrap;html=1;fontSize=14;" vertex="1" parent="1">
                    <mxGeometry x="230" y="490" width="170" height="60" as="geometry"/>
                </mxCell>
                <mxCell id="42" value="" style="endArrow=none;html=1;rounded=0;fontSize=14;fontColor=#FFFFFF;startArrow=halfCircle;startFill=0;" edge="1" parent="1">
                    <mxGeometry width="50" height="50" relative="1" as="geometry">
                        <mxPoint x="300" y="640" as="sourcePoint"/>
                        <mxPoint x="340" y="640" as="targetPoint"/>
                    </mxGeometry>
                </mxCell>
                <mxCell id="48" style="edgeStyle=none;rounded=0;html=1;fontSize=14;fontColor=#FFFFFF;startArrow=none;startFill=0;endArrow=none;endFill=0;" edge="1" parent="1" source="43">
                    <mxGeometry relative="1" as="geometry">
                        <mxPoint x="340" y="600" as="targetPoint"/>
                    </mxGeometry>
                </mxCell>
                <mxCell id="43" value="&lt;span style=&quot;white-space: pre&quot;&gt;&#9;&lt;/span&gt;LOGRADOURO" style="ellipse;whiteSpace=wrap;html=1;aspect=fixed;fontSize=14;align=left;fillColor=#f5f5f5;fontColor=#FFFFFF;strokeColor=#666666;" vertex="1" parent="1">
                    <mxGeometry x="370" y="590" width="20" height="20" as="geometry"/>
                </mxCell>
                <mxCell id="49" style="edgeStyle=none;rounded=0;html=1;fontSize=14;fontColor=#FFFFFF;startArrow=none;startFill=0;endArrow=none;endFill=0;" edge="1" parent="1" source="44">
                    <mxGeometry relative="1" as="geometry">
                        <mxPoint x="340" y="623.5" as="targetPoint"/>
                    </mxGeometry>
                </mxCell>
                <mxCell id="44" value="&lt;span style=&quot;white-space: pre&quot;&gt;&#9;&lt;/span&gt;NUMERO" style="ellipse;whiteSpace=wrap;html=1;aspect=fixed;fontSize=14;align=left;fillColor=#f5f5f5;fontColor=#FFFFFF;strokeColor=#666666;" vertex="1" parent="1">
                    <mxGeometry x="370" y="613" width="20" height="21" as="geometry"/>
                </mxCell>
                <mxCell id="50" style="edgeStyle=none;rounded=0;html=1;fontSize=14;fontColor=#FFFFFF;startArrow=none;startFill=0;endArrow=none;endFill=0;" edge="1" parent="1" source="45">
                    <mxGeometry relative="1" as="geometry">
                        <mxPoint x="340" y="646.5" as="targetPoint"/>
                    </mxGeometry>
                </mxCell>
                <mxCell id="45" value="&lt;span style=&quot;white-space: pre&quot;&gt;&#9;&lt;/span&gt;COMPLEMENTO" style="ellipse;whiteSpace=wrap;html=1;aspect=fixed;fontSize=14;align=left;fillColor=#f5f5f5;fontColor=#FFFFFF;strokeColor=#666666;" vertex="1" parent="1">
                    <mxGeometry x="370" y="636" width="20" height="21" as="geometry"/>
                </mxCell>
                <mxCell id="51" style="edgeStyle=none;rounded=0;html=1;fontSize=14;fontColor=#FFFFFF;startArrow=none;startFill=0;endArrow=none;endFill=0;" edge="1" parent="1" source="46">
                    <mxGeometry relative="1" as="geometry">
                        <mxPoint x="340" y="670.5000000000001" as="targetPoint"/>
                    </mxGeometry>
                </mxCell>
                <mxCell id="46" value="&lt;span style=&quot;white-space: pre&quot;&gt;&#9;&lt;/span&gt;CEP" style="ellipse;whiteSpace=wrap;html=1;aspect=fixed;fontSize=14;align=left;fillColor=#f5f5f5;fontColor=#FFFFFF;strokeColor=#666666;" vertex="1" parent="1">
                    <mxGeometry x="370" y="660" width="20" height="21" as="geometry"/>
                </mxCell>
                <mxCell id="47" value="" style="endArrow=none;html=1;rounded=0;fontSize=14;fontColor=#FFFFFF;" edge="1" parent="1">
                    <mxGeometry width="50" height="50" relative="1" as="geometry">
                        <mxPoint x="340" y="670" as="sourcePoint"/>
                        <mxPoint x="340" y="600" as="targetPoint"/>
                    </mxGeometry>
                </mxCell>
                <mxCell id="55" value="CANAL" style="rounded=0;whiteSpace=wrap;html=1;fontSize=14;" vertex="1" parent="1">
                    <mxGeometry x="50" y="850" width="120" height="60" as="geometry"/>
                </mxCell>
                <mxCell id="56" value="PACOTE" style="rounded=0;whiteSpace=wrap;html=1;fontSize=14;" vertex="1" parent="1">
                    <mxGeometry x="490" y="850" width="120" height="60" as="geometry"/>
                </mxCell>
                <mxCell id="57" value="(1,N)" style="edgeStyle=none;html=1;entryX=1;entryY=0.5;entryDx=0;entryDy=0;endArrow=none;endFill=0;fontSize=14;" edge="1" parent="1" source="59" target="55">
                    <mxGeometry relative="1" as="geometry"/>
                </mxCell>
                <mxCell id="58" value="(1,1)" style="edgeStyle=none;html=1;entryX=0;entryY=0.5;entryDx=0;entryDy=0;endArrow=none;endFill=0;fontSize=14;" edge="1" parent="1" source="59" target="56">
                    <mxGeometry x="0.4286" y="20" relative="1" as="geometry">
                        <mxPoint as="offset"/>
                    </mxGeometry>
                </mxCell>
                <mxCell id="59" value="POSSUI" style="rhombus;whiteSpace=wrap;html=1;fontSize=14;" vertex="1" parent="1">
                    <mxGeometry x="250" y="850" width="170" height="60" as="geometry"/>
                </mxCell>
                <mxCell id="60" style="edgeStyle=none;rounded=0;html=1;entryX=0.117;entryY=-0.009;entryDx=0;entryDy=0;entryPerimeter=0;fontSize=14;fontColor=#FFFFFF;endArrow=none;endFill=0;" edge="1" parent="1" source="61" target="56">
                    <mxGeometry relative="1" as="geometry">
                        <Array as="points">
                            <mxPoint x="504" y="760"/>
                        </Array>
                    </mxGeometry>
                </mxCell>
                <mxCell id="61" value="&lt;span style=&quot;white-space: pre&quot;&gt;&#9;&lt;/span&gt;NOME" style="ellipse;whiteSpace=wrap;html=1;aspect=fixed;fontSize=14;align=left;" vertex="1" parent="1">
                    <mxGeometry x="560" y="750" width="20" height="20" as="geometry"/>
                </mxCell>
                <mxCell id="62" style="edgeStyle=orthogonalEdgeStyle;rounded=0;html=1;entryX=0.324;entryY=0.003;entryDx=0;entryDy=0;entryPerimeter=0;fontSize=14;endArrow=none;endFill=0;" edge="1" parent="1" source="63" target="56">
                    <mxGeometry relative="1" as="geometry">
                        <Array as="points">
                            <mxPoint x="533" y="790"/>
                            <mxPoint x="533" y="850"/>
                        </Array>
                    </mxGeometry>
                </mxCell>
                <mxCell id="63" value="&lt;span style=&quot;white-space: pre&quot;&gt;&#9;&lt;/span&gt;PRECO" style="ellipse;whiteSpace=wrap;html=1;aspect=fixed;fontSize=14;align=left;fillColor=#f5f5f5;fontColor=#FFFFFF;strokeColor=#666666;" vertex="1" parent="1">
                    <mxGeometry x="560" y="780" width="20" height="20" as="geometry"/>
                </mxCell>
                <mxCell id="64" value="(1,1)" style="edgeStyle=none;rounded=0;html=1;entryX=0;entryY=0.5;entryDx=0;entryDy=0;fontSize=14;fontColor=#FFFFFF;endArrow=none;endFill=0;" edge="1" parent="1" source="65" target="85">
                    <mxGeometry x="-0.3333" y="20" relative="1" as="geometry">
                        <mxPoint as="offset"/>
                    </mxGeometry>
                </mxCell>
                <mxCell id="65" value="CLIENTE" style="rounded=0;whiteSpace=wrap;html=1;fontSize=14;fontColor=#FFFFFF;" vertex="1" parent="1">
                    <mxGeometry x="40" y="1090" width="120" height="60" as="geometry"/>
                </mxCell>
                <mxCell id="66" style="edgeStyle=orthogonalEdgeStyle;rounded=0;html=1;entryX=0.716;entryY=1.02;entryDx=0;entryDy=0;entryPerimeter=0;fontSize=14;fontColor=#FFFFFF;endArrow=none;endFill=0;" edge="1" parent="1" source="67" target="65">
                    <mxGeometry relative="1" as="geometry"/>
                </mxCell>
                <mxCell id="67" value="&lt;span style=&quot;white-space: pre&quot;&gt;&#9;&lt;/span&gt;CPF" style="ellipse;whiteSpace=wrap;html=1;aspect=fixed;fontSize=14;align=left;" vertex="1" parent="1">
                    <mxGeometry x="114" y="1170" width="20" height="20" as="geometry"/>
                </mxCell>
                <mxCell id="68" style="edgeStyle=orthogonalEdgeStyle;rounded=0;html=1;entryX=0.5;entryY=1;entryDx=0;entryDy=0;fontSize=14;fontColor=#FFFFFF;endArrow=none;endFill=0;" edge="1" parent="1" source="69" target="65">
                    <mxGeometry relative="1" as="geometry"/>
                </mxCell>
                <mxCell id="69" value="&lt;span style=&quot;white-space: pre&quot;&gt;&#9;&lt;/span&gt;NOME" style="ellipse;whiteSpace=wrap;html=1;aspect=fixed;fontSize=14;align=left;fillColor=#f5f5f5;fontColor=#FFFFFF;strokeColor=#666666;" vertex="1" parent="1">
                    <mxGeometry x="92" y="1200" width="20" height="20" as="geometry"/>
                </mxCell>
                <mxCell id="70" style="edgeStyle=orthogonalEdgeStyle;rounded=0;html=1;fontSize=14;fontColor=#FFFFFF;endArrow=none;endFill=0;" edge="1" parent="1" source="71">
                    <mxGeometry relative="1" as="geometry">
                        <mxPoint x="76.99999999999989" y="1150" as="targetPoint"/>
                    </mxGeometry>
                </mxCell>
                <mxCell id="71" value="&lt;span style=&quot;white-space: pre&quot;&gt;&#9;&lt;/span&gt;ENDEREÇO" style="ellipse;whiteSpace=wrap;html=1;aspect=fixed;fontSize=14;align=left;fillColor=#f5f5f5;fontColor=#FFFFFF;strokeColor=#666666;" vertex="1" parent="1">
                    <mxGeometry x="92" y="1229.5" width="20" height="20" as="geometry"/>
                </mxCell>
                <mxCell id="72" style="edgeStyle=orthogonalEdgeStyle;rounded=0;html=1;entryX=0.136;entryY=1.02;entryDx=0;entryDy=0;entryPerimeter=0;fontSize=14;fontColor=#FFFFFF;endArrow=none;endFill=0;" edge="1" parent="1" source="73" target="65">
                    <mxGeometry relative="1" as="geometry"/>
                </mxCell>
                <mxCell id="73" value="&lt;span style=&quot;white-space: pre&quot;&gt;&#9;&lt;/span&gt;EMAIL_(0,N)" style="ellipse;whiteSpace=wrap;html=1;aspect=fixed;fontSize=14;align=left;fillColor=#f5f5f5;fontColor=#FFFFFF;strokeColor=#000000;dashed=1;strokeWidth=2;gradientColor=none;shadow=0;sketch=0;" vertex="1" parent="1">
                    <mxGeometry x="48" y="1255" width="20" height="20" as="geometry"/>
                </mxCell>
                <mxCell id="74" style="edgeStyle=none;rounded=0;html=1;entryX=0.57;entryY=0.98;entryDx=0;entryDy=0;entryPerimeter=0;fontSize=14;fontColor=#FFFFFF;startArrow=none;startFill=0;endArrow=none;endFill=0;" edge="1" parent="1" source="75" target="96">
                    <mxGeometry relative="1" as="geometry"/>
                </mxCell>
                <mxCell id="75" value="&lt;span style=&quot;white-space: pre&quot;&gt;&#9;&lt;/span&gt;DATAASSINATURA" style="ellipse;whiteSpace=wrap;html=1;aspect=fixed;fontSize=14;align=left;fillColor=#f5f5f5;fontColor=#FFFFFF;strokeColor=#666666;" vertex="1" parent="1">
                    <mxGeometry x="570" y="1204" width="20" height="20" as="geometry"/>
                </mxCell>
                <mxCell id="76" style="edgeStyle=none;rounded=0;html=1;fontSize=14;fontColor=#FFFFFF;startArrow=none;startFill=0;endArrow=none;endFill=0;entryX=0.32;entryY=1.04;entryDx=0;entryDy=0;entryPerimeter=0;" edge="1" parent="1" source="77" target="96">
                    <mxGeometry relative="1" as="geometry"/>
                </mxCell>
                <mxCell id="77" value="&lt;span style=&quot;white-space: pre&quot;&gt;&#9;&lt;/span&gt;DATADESATIVA" style="ellipse;whiteSpace=wrap;html=1;aspect=fixed;fontSize=14;align=left;fillColor=#f5f5f5;fontColor=#FFFFFF;strokeColor=#666666;" vertex="1" parent="1">
                    <mxGeometry x="540" y="1224" width="20" height="20" as="geometry"/>
                </mxCell>
                <mxCell id="78" style="edgeStyle=none;rounded=0;html=1;entryX=0.83;entryY=1.02;entryDx=0;entryDy=0;entryPerimeter=0;fontSize=14;fontColor=#FFFFFF;startArrow=none;startFill=0;endArrow=none;endFill=0;" edge="1" parent="1" source="79" target="96">
                    <mxGeometry relative="1" as="geometry"/>
                </mxCell>
                <mxCell id="79" value="&lt;span style=&quot;white-space: pre&quot;&gt;&#9;&lt;/span&gt;ENDERECOINSTALACAO" style="ellipse;whiteSpace=wrap;html=1;aspect=fixed;fontSize=14;align=left;fillColor=#f5f5f5;fontColor=#FFFFFF;strokeColor=#666666;" vertex="1" parent="1">
                    <mxGeometry x="600" y="1176" width="20" height="20" as="geometry"/>
                </mxCell>
                <mxCell id="80" style="edgeStyle=orthogonalEdgeStyle;rounded=0;html=1;fontSize=14;fontColor=#FFFFFF;endArrow=none;endFill=0;" edge="1" parent="1" source="81" target="55">
                    <mxGeometry relative="1" as="geometry">
                        <Array as="points">
                            <mxPoint x="70" y="930"/>
                            <mxPoint x="70" y="930"/>
                        </Array>
                    </mxGeometry>
                </mxCell>
                <mxCell id="81" value="&lt;span style=&quot;white-space: pre&quot;&gt;&#9;&lt;/span&gt;NOME" style="ellipse;whiteSpace=wrap;html=1;aspect=fixed;fontSize=14;align=left;fillColor=#f5f5f5;fontColor=#FFFFFF;strokeColor=#666666;" vertex="1" parent="1">
                    <mxGeometry x="60" y="930" width="20" height="20" as="geometry"/>
                </mxCell>
                <mxCell id="82" style="edgeStyle=orthogonalEdgeStyle;rounded=0;html=1;fontSize=14;fontColor=#FFFFFF;endArrow=none;endFill=0;entryX=0.121;entryY=0.057;entryDx=0;entryDy=0;entryPerimeter=0;" edge="1" parent="1" source="83" target="55">
                    <mxGeometry relative="1" as="geometry">
                        <mxPoint x="70" y="860" as="targetPoint"/>
                    </mxGeometry>
                </mxCell>
                <mxCell id="83" value="&lt;span style=&quot;white-space: pre&quot;&gt;&#9;&lt;/span&gt;NUMERO" style="ellipse;whiteSpace=wrap;html=1;aspect=fixed;fontSize=14;align=left;" vertex="1" parent="1">
                    <mxGeometry x="60" y="810" width="20" height="20" as="geometry"/>
                </mxCell>
                <mxCell id="100" value="(1,N)" style="edgeStyle=none;rounded=0;html=1;fontSize=14;fontColor=#FFFFFF;startArrow=none;startFill=0;endArrow=none;endFill=0;" edge="1" parent="1" source="85" target="96">
                    <mxGeometry relative="1" as="geometry"/>
                </mxCell>
                <mxCell id="85" value="FAZ" style="rhombus;whiteSpace=wrap;html=1;fontSize=14;" vertex="1" parent="1">
                    <mxGeometry x="250" y="1090" width="170" height="60" as="geometry"/>
                </mxCell>
                <mxCell id="86" value="" style="endArrow=none;html=1;rounded=0;fontSize=14;fontColor=#FFFFFF;startArrow=halfCircle;startFill=0;" edge="1" parent="1">
                    <mxGeometry width="50" height="50" relative="1" as="geometry">
                        <mxPoint x="212" y="1239.5" as="sourcePoint"/>
                        <mxPoint x="252" y="1239.5" as="targetPoint"/>
                    </mxGeometry>
                </mxCell>
                <mxCell id="87" style="edgeStyle=none;rounded=0;html=1;fontSize=14;fontColor=#FFFFFF;startArrow=none;startFill=0;endArrow=none;endFill=0;" edge="1" parent="1" source="88">
                    <mxGeometry relative="1" as="geometry">
                        <mxPoint x="252" y="1199.5" as="targetPoint"/>
                    </mxGeometry>
                </mxCell>
                <mxCell id="88" value="&lt;span style=&quot;white-space: pre&quot;&gt;&#9;&lt;/span&gt;LOGRADOURO" style="ellipse;whiteSpace=wrap;html=1;aspect=fixed;fontSize=14;align=left;fillColor=#f5f5f5;fontColor=#FFFFFF;strokeColor=#666666;" vertex="1" parent="1">
                    <mxGeometry x="282" y="1189.5" width="20" height="20" as="geometry"/>
                </mxCell>
                <mxCell id="89" style="edgeStyle=none;rounded=0;html=1;fontSize=14;fontColor=#FFFFFF;startArrow=none;startFill=0;endArrow=none;endFill=0;" edge="1" parent="1" source="90">
                    <mxGeometry relative="1" as="geometry">
                        <mxPoint x="252" y="1223" as="targetPoint"/>
                    </mxGeometry>
                </mxCell>
                <mxCell id="90" value="&lt;span style=&quot;white-space: pre&quot;&gt;&#9;&lt;/span&gt;NUMERO" style="ellipse;whiteSpace=wrap;html=1;aspect=fixed;fontSize=14;align=left;fillColor=#f5f5f5;fontColor=#FFFFFF;strokeColor=#666666;" vertex="1" parent="1">
                    <mxGeometry x="282" y="1212.5" width="20" height="21" as="geometry"/>
                </mxCell>
                <mxCell id="91" style="edgeStyle=none;rounded=0;html=1;fontSize=14;fontColor=#FFFFFF;startArrow=none;startFill=0;endArrow=none;endFill=0;" edge="1" parent="1" source="92">
                    <mxGeometry relative="1" as="geometry">
                        <mxPoint x="252" y="1246" as="targetPoint"/>
                    </mxGeometry>
                </mxCell>
                <mxCell id="92" value="&lt;span style=&quot;white-space: pre&quot;&gt;&#9;&lt;/span&gt;COMPLEMENTO" style="ellipse;whiteSpace=wrap;html=1;aspect=fixed;fontSize=14;align=left;fillColor=#f5f5f5;fontColor=#FFFFFF;strokeColor=#666666;" vertex="1" parent="1">
                    <mxGeometry x="282" y="1235.5" width="20" height="21" as="geometry"/>
                </mxCell>
                <mxCell id="93" style="edgeStyle=none;rounded=0;html=1;fontSize=14;fontColor=#FFFFFF;startArrow=none;startFill=0;endArrow=none;endFill=0;" edge="1" parent="1" source="94">
                    <mxGeometry relative="1" as="geometry">
                        <mxPoint x="252" y="1270" as="targetPoint"/>
                    </mxGeometry>
                </mxCell>
                <mxCell id="94" value="&lt;span style=&quot;white-space: pre&quot;&gt;&#9;&lt;/span&gt;CEP" style="ellipse;whiteSpace=wrap;html=1;aspect=fixed;fontSize=14;align=left;fillColor=#f5f5f5;fontColor=#FFFFFF;strokeColor=#666666;" vertex="1" parent="1">
                    <mxGeometry x="282" y="1259.5" width="20" height="21" as="geometry"/>
                </mxCell>
                <mxCell id="95" value="" style="endArrow=none;html=1;rounded=0;fontSize=14;fontColor=#FFFFFF;" edge="1" parent="1">
                    <mxGeometry width="50" height="50" relative="1" as="geometry">
                        <mxPoint x="252" y="1269.5" as="sourcePoint"/>
                        <mxPoint x="252" y="1199.5" as="targetPoint"/>
                    </mxGeometry>
                </mxCell>
                <mxCell id="99" value="(0,N)" style="edgeStyle=none;rounded=0;html=1;fontSize=14;fontColor=#FFFFFF;startArrow=none;startFill=0;endArrow=none;endFill=0;" edge="1" parent="1" source="96" target="98">
                    <mxGeometry relative="1" as="geometry"/>
                </mxCell>
                <mxCell id="96" value="ASSINATURA" style="rounded=0;whiteSpace=wrap;html=1;shadow=0;sketch=0;fontSize=14;fontColor=#FFFFFF;strokeColor=#FFFFFF;strokeWidth=2;gradientColor=none;" vertex="1" parent="1">
                    <mxGeometry x="510" y="1090" width="120" height="60" as="geometry"/>
                </mxCell>
                <mxCell id="101" value="(1,N)" style="edgeStyle=none;rounded=0;html=1;fontSize=14;fontColor=#FFFFFF;startArrow=none;startFill=0;endArrow=none;endFill=0;entryX=0.657;entryY=1.014;entryDx=0;entryDy=0;entryPerimeter=0;" edge="1" parent="1" source="98" target="56">
                    <mxGeometry relative="1" as="geometry"/>
                </mxCell>
                <mxCell id="98" value="POSSUI_ASS" style="rhombus;whiteSpace=wrap;html=1;fontSize=14;strokeColor=#FFFFFF;fontColor=#FFFFFF;rounded=0;shadow=0;sketch=0;strokeWidth=2;gradientColor=none;" vertex="1" parent="1">
                    <mxGeometry x="460" y="970" width="220" height="50" as="geometry"/>
                </mxCell>
            </root>
        </mxGraphModel>
    </diagram>
</mxfile>